<svg width="21" height="27" viewBox="0 0 21 27" fill="none" xmlns="http://www.w3.org/2000/svg">
<path d="M17.5765 14.3749C17.5891 13.3985 17.8484 12.4411 18.3305 11.5918C18.8125 10.7425 19.5015 10.0289 20.3334 9.5175C19.8049 8.76274 19.1077 8.1416 18.2972 7.70342C17.4867 7.26524 16.5851 7.02209 15.6642 6.99327C13.6997 6.78706 11.7952 8.16881 10.7941 8.16881C9.77363 8.16881 8.23231 7.01375 6.57256 7.04789C5.49898 7.08258 4.45271 7.39476 3.53566 7.95404C2.61861 8.51331 1.86208 9.30059 1.33976 10.2392C-0.922735 14.1564 0.76489 19.9135 2.93221 23.0799C4.01658 24.6304 5.28388 26.3624 6.94214 26.301C8.56484 26.2337 9.17089 25.2662 11.1296 25.2662C13.0702 25.2662 13.6388 26.301 15.3307 26.2619C17.0719 26.2337 18.169 24.7045 19.2153 23.1393C19.9944 22.0345 20.5939 20.8135 20.9917 19.5215C19.9801 19.0936 19.1168 18.3774 18.5095 17.4622C17.9021 16.547 17.5777 15.4733 17.5765 14.3749Z" fill="#282739"/>
<path d="M14.3808 4.91126C15.3302 3.77155 15.798 2.30665 15.6847 0.827637C14.2343 0.979978 12.8944 1.6732 11.9322 2.76918C11.4618 3.3046 11.1014 3.92749 10.8719 4.60224C10.6423 5.277 10.5479 5.99038 10.5942 6.70162C11.3197 6.70909 12.0374 6.55184 12.6933 6.24172C13.3492 5.9316 13.9262 5.4767 14.3808 4.91126V4.91126Z" fill="#282739"/>
</svg>
