<svg width="12" height="18" viewBox="0 0 12 18" fill="none" xmlns="http://www.w3.org/2000/svg">
<path d="M11.2233 0.260732C11.14 0.101188 10.9749 0 10.7948 0H3.72925C3.51557 0 3.32727 0.141421 3.26614 0.346092L0.742185 8.80412C0.698508 8.95043 0.726539 9.10792 0.817759 9.23032C0.908979 9.35277 1.0527 9.42405 1.20529 9.42405H5.16696L3.57097 17.4212C3.52452 17.6538 3.65367 17.8862 3.87586 17.9691C3.93126 17.9898 3.98841 18 4.04477 18C4.21428 18 4.37679 17.9106 4.46487 17.7559L10.689 6.82597C10.7741 6.67634 10.7733 6.49172 10.6868 6.34287C10.6003 6.19402 10.4412 6.10147 10.269 6.10147H7.46643L11.1912 0.760267C11.2942 0.612563 11.3066 0.420397 11.2233 0.260732Z" fill="#5D6C7B"/>
</svg>
