<svg width="18" height="16" viewBox="0 0 18 16" fill="none" xmlns="http://www.w3.org/2000/svg">
<path d="M16.9935 3.51496C16.7329 2.90541 16.357 2.35303 15.887 1.88876C15.4167 1.4231 14.8621 1.05305 14.2535 0.798733C13.6224 0.53397 12.9455 0.39845 12.2622 0.400038C11.3034 0.400038 10.3681 0.66518 9.55519 1.166C9.36072 1.28581 9.17598 1.4174 9.00096 1.56077C8.82594 1.4174 8.6412 1.28581 8.44673 1.166C7.63386 0.66518 6.69847 0.400038 5.73975 0.400038C5.0494 0.400038 4.38043 0.533591 3.74841 0.798733C3.13779 1.05405 2.58745 1.42132 2.11489 1.88876C1.64428 2.35251 1.26834 2.90501 1.00838 3.51496C0.73807 4.14934 0.599998 4.823 0.599998 5.51629C0.599998 6.17031 0.732236 6.85182 0.994766 7.54512C1.21451 8.1245 1.52955 8.72549 1.9321 9.33237C2.56995 10.2928 3.44699 11.2944 4.536 12.3098C6.34066 13.993 8.1278 15.1557 8.20365 15.2028L8.66453 15.5013C8.86872 15.6329 9.13125 15.6329 9.33544 15.5013L9.79633 15.2028C9.87217 15.1537 11.6574 13.993 13.464 12.3098C14.553 11.2944 15.43 10.2928 16.0679 9.33237C16.4704 8.72549 16.7874 8.1245 17.0052 7.54512C17.2677 6.85182 17.4 6.17031 17.4 5.51629C17.4019 4.823 17.2639 4.14934 16.9935 3.51496ZM9.00096 13.9478C9.00096 13.9478 2.07795 9.46789 2.07795 5.51629C2.07795 3.51496 3.7173 1.89269 5.73975 1.89269C7.1613 1.89269 8.39422 2.69401 9.00096 3.86456C9.6077 2.69401 10.8406 1.89269 12.2622 1.89269C14.2846 1.89269 15.924 3.51496 15.924 5.51629C15.924 9.46789 9.00096 13.9478 9.00096 13.9478Z" fill="#282739"/>
</svg>
