<svg width="18" height="16" viewBox="0 0 18 16" fill="none" xmlns="http://www.w3.org/2000/svg">
<path d="M16.9935 3.51493C16.7329 2.90538 16.357 2.353 15.887 1.88873C15.4167 1.42307 14.8621 1.05302 14.2535 0.798702C13.6224 0.53394 12.9455 0.398419 12.2621 0.400008C11.3034 0.400008 10.368 0.665149 9.55517 1.16597C9.3607 1.28578 9.17596 1.41737 9.00094 1.56074C8.82592 1.41737 8.64117 1.28578 8.44671 1.16597C7.63384 0.665149 6.69845 0.400008 5.73973 0.400008C5.04937 0.400008 4.38041 0.533561 3.74839 0.798702C3.13777 1.05402 2.58743 1.42129 2.11487 1.88873C1.64426 2.35248 1.26831 2.90498 1.00836 3.51493C0.738047 4.14931 0.599976 4.82296 0.599976 5.51626C0.599976 6.17028 0.732213 6.85179 0.994743 7.54509C1.21449 8.12447 1.52953 8.72546 1.93207 9.33234C2.56992 10.2927 3.44697 11.2944 4.53598 12.3098C6.34063 13.9929 8.12778 15.1556 8.20362 15.2028L8.66451 15.5013C8.8687 15.6329 9.13123 15.6329 9.33542 15.5013L9.79631 15.2028C9.87215 15.1537 11.6574 13.9929 13.4639 12.3098C14.553 11.2944 15.43 10.2927 16.0679 9.33234C16.4704 8.72546 16.7874 8.12447 17.0052 7.54509C17.2677 6.85179 17.4 6.17028 17.4 5.51626C17.4019 4.82296 17.2638 4.14931 16.9935 3.51493ZM9.00094 13.9478C9.00094 13.9478 2.07792 9.46786 2.07792 5.51626C2.07792 3.51493 3.71728 1.89266 5.73973 1.89266C7.16128 1.89266 8.3942 2.69397 9.00094 3.86453C9.60767 2.69397 10.8406 1.89266 12.2621 1.89266C14.2846 1.89266 15.924 3.51493 15.924 5.51626C15.924 9.46786 9.00094 13.9478 9.00094 13.9478Z" fill="#6F73EE"/>
</svg>
