<svg width="20" height="12" viewBox="0 0 20 12" fill="none" xmlns="http://www.w3.org/2000/svg">
<mask id="path-1-inside-1_1_15995" fill="white">
<path d="M19.4141 7.26393H18.7766L16.7349 2.32553C17.0208 2.28663 17.2413 2.04217 17.2413 1.74561C17.2413 1.42202 16.979 1.15967 16.6554 1.15967H11.6177C11.3769 0.490884 10.7363 0.0113525 9.98559 0.0113525C9.23488 0.0113525 8.59422 0.490923 8.3534 1.15967H3.34465C3.02105 1.15967 2.75871 1.42202 2.75871 1.74561C2.75871 2.04217 2.97926 2.28663 3.26512 2.32553L1.22344 7.26393H0.585938C0.262344 7.26393 0 7.52627 0 7.84987C0 10.132 1.85668 11.9887 4.13883 11.9887C6.42098 11.9887 8.27766 10.132 8.27766 7.84987C8.27766 7.52627 8.01531 7.26393 7.69172 7.26393H7.05418L5.01504 2.33155H8.3534C8.59422 3.00034 9.23484 3.47987 9.98559 3.47987C10.7363 3.47987 11.3769 3.00034 11.6177 2.33155H14.985L12.9459 7.26393H12.3083C11.9847 7.26393 11.7224 7.52627 11.7224 7.84987C11.7224 10.132 13.5791 11.9887 15.8612 11.9887C18.1434 11.9887 20 10.132 20 7.84987C20 7.52627 19.7377 7.26393 19.4141 7.26393ZM4.13883 10.8168C2.70332 10.8168 1.5027 9.79217 1.22996 8.43581H7.0477C6.77496 9.79217 5.57434 10.8168 4.13883 10.8168ZM5.78613 7.26393H2.49152L4.13883 3.2794L5.78613 7.26393ZM9.98555 2.30799C9.67543 2.30799 9.42316 2.05573 9.42316 1.74561C9.42316 1.43549 9.67543 1.18323 9.98555 1.18323C10.2956 1.18323 10.5479 1.43549 10.5479 1.74561C10.5479 2.05573 10.2957 2.30799 9.98555 2.30799ZM15.8612 3.2794L17.5085 7.26393H14.2139L15.8612 3.2794ZM15.8612 10.8168C14.4257 10.8168 13.225 9.79217 12.9523 8.43581H18.77C18.4973 9.79217 17.2966 10.8168 15.8612 10.8168Z"/>
</mask>
<path d="M19.4141 7.26393H18.7766L16.7349 2.32553C17.0208 2.28663 17.2413 2.04217 17.2413 1.74561C17.2413 1.42202 16.979 1.15967 16.6554 1.15967H11.6177C11.3769 0.490884 10.7363 0.0113525 9.98559 0.0113525C9.23488 0.0113525 8.59422 0.490923 8.3534 1.15967H3.34465C3.02105 1.15967 2.75871 1.42202 2.75871 1.74561C2.75871 2.04217 2.97926 2.28663 3.26512 2.32553L1.22344 7.26393H0.585938C0.262344 7.26393 0 7.52627 0 7.84987C0 10.132 1.85668 11.9887 4.13883 11.9887C6.42098 11.9887 8.27766 10.132 8.27766 7.84987C8.27766 7.52627 8.01531 7.26393 7.69172 7.26393H7.05418L5.01504 2.33155H8.3534C8.59422 3.00034 9.23484 3.47987 9.98559 3.47987C10.7363 3.47987 11.3769 3.00034 11.6177 2.33155H14.985L12.9459 7.26393H12.3083C11.9847 7.26393 11.7224 7.52627 11.7224 7.84987C11.7224 10.132 13.5791 11.9887 15.8612 11.9887C18.1434 11.9887 20 10.132 20 7.84987C20 7.52627 19.7377 7.26393 19.4141 7.26393ZM4.13883 10.8168C2.70332 10.8168 1.5027 9.79217 1.22996 8.43581H7.0477C6.77496 9.79217 5.57434 10.8168 4.13883 10.8168ZM5.78613 7.26393H2.49152L4.13883 3.2794L5.78613 7.26393ZM9.98555 2.30799C9.67543 2.30799 9.42316 2.05573 9.42316 1.74561C9.42316 1.43549 9.67543 1.18323 9.98555 1.18323C10.2956 1.18323 10.5479 1.43549 10.5479 1.74561C10.5479 2.05573 10.2957 2.30799 9.98555 2.30799ZM15.8612 3.2794L17.5085 7.26393H14.2139L15.8612 3.2794ZM15.8612 10.8168C14.4257 10.8168 13.225 9.79217 12.9523 8.43581H18.77C18.4973 9.79217 17.2966 10.8168 15.8612 10.8168Z" fill="#282739"/>
<path d="M18.7766 7.26393L15.08 8.79216L16.1019 11.2639H18.7766V7.26393ZM16.7349 2.32553L16.1956 -1.63794L11.0571 -0.938671L13.0384 3.85377L16.7349 2.32553ZM11.6177 1.15967L7.85429 2.51483L8.80665 5.15967H11.6177V1.15967ZM8.3534 1.15967V5.15967H11.1644L12.1168 2.5149L8.3534 1.15967ZM3.26512 2.32553L6.96166 3.85379L8.94296 -0.938575L3.80455 -1.63793L3.26512 2.32553ZM1.22344 7.26393V11.2639H3.89809L4.91998 8.79219L1.22344 7.26393ZM7.05418 7.26393L3.35762 8.79216L4.3795 11.2639H7.05418V7.26393ZM5.01504 2.33155V-1.66845H-0.966991L1.31848 3.85977L5.01504 2.33155ZM8.3534 2.33155L12.1168 0.97639L11.1645 -1.66845H8.3534V2.33155ZM11.6177 2.33155V-1.66845H8.80665L7.85429 0.97639L11.6177 2.33155ZM14.985 2.33155L18.6816 3.85977L20.967 -1.66845H14.985V2.33155ZM12.9459 7.26393V11.2639H15.6205L16.6424 8.79216L12.9459 7.26393ZM1.22996 8.43581V4.43581H-3.65441L-2.69155 9.22433L1.22996 8.43581ZM7.0477 8.43581L10.9692 9.22433L11.9321 4.43581H7.0477V8.43581ZM5.78613 7.26393V11.2639H11.7682L9.48268 5.73569L5.78613 7.26393ZM2.49152 7.26393L-1.20502 5.73568L-3.49054 11.2639H2.49152V7.26393ZM4.13883 3.2794L7.83538 1.75115L4.13883 -7.19012L0.44228 1.75115L4.13883 3.2794ZM15.8612 3.2794L19.5577 1.75115L15.8612 -7.19012L12.1646 1.75115L15.8612 3.2794ZM17.5085 7.26393V11.2639H23.4905L21.205 5.73569L17.5085 7.26393ZM14.2139 7.26393L10.5173 5.73569L8.2318 11.2639H14.2139V7.26393ZM12.9523 8.43581V4.43581H8.06793L9.0308 9.22433L12.9523 8.43581ZM18.77 8.43581L22.6915 9.22433L23.6544 4.43581H18.77V8.43581ZM19.4141 3.26393H18.7766V11.2639H19.4141V3.26393ZM22.4731 5.7357L20.4315 0.797298L13.0384 3.85377L15.08 8.79216L22.4731 5.7357ZM17.2743 6.289C19.5083 5.98499 21.2413 4.07734 21.2413 1.74561H13.2413C13.2413 0.00700431 14.5334 -1.41174 16.1956 -1.63794L17.2743 6.289ZM21.2413 1.74561C21.2413 -0.787122 19.1881 -2.84033 16.6554 -2.84033V5.15967C14.7698 5.15967 13.2413 3.63116 13.2413 1.74561H21.2413ZM16.6554 -2.84033H11.6177V5.15967H16.6554V-2.84033ZM15.3812 -0.195485C14.5889 -2.39586 12.4809 -3.98865 9.98559 -3.98865V4.01135C8.99163 4.01135 8.16497 3.37763 7.85429 2.51483L15.3812 -0.195485ZM9.98559 -3.98865C7.49022 -3.98865 5.38231 -2.39583 4.58997 -0.195555L12.1168 2.5149C11.8061 3.37768 10.9795 4.01135 9.98559 4.01135V-3.98865ZM8.3534 -2.84033H3.34465V5.15967H8.3534V-2.84033ZM3.34465 -2.84033C0.811916 -2.84033 -1.24129 -0.787122 -1.24129 1.74561H6.75871C6.75871 3.63116 5.23019 5.15967 3.34465 5.15967V-2.84033ZM-1.24129 1.74561C-1.24129 4.07758 0.492035 5.98499 2.72568 6.28899L3.80455 -1.63793C5.46648 -1.41173 6.75871 0.00676679 6.75871 1.74561H-1.24129ZM-0.431425 0.797272L-2.4731 5.73567L4.91998 8.79219L6.96166 3.85379L-0.431425 0.797272ZM1.22344 3.26393H0.585938V11.2639H1.22344V3.26393ZM0.585938 3.26393C-1.9468 3.26393 -4 5.31713 -4 7.84987H4C4 9.73541 2.47148 11.2639 0.585938 11.2639V3.26393ZM-4 7.84987C-4 12.3412 -0.352459 15.9887 4.13883 15.9887V7.9887C4.11514 7.9887 4.10112 7.98465 4.08983 7.97987C4.07582 7.97394 4.05865 7.96327 4.04204 7.94666C4.02542 7.93005 4.01476 7.91287 4.00882 7.89887C4.00404 7.88758 4 7.87355 4 7.84987H-4ZM4.13883 15.9887C8.63012 15.9887 12.2777 12.3412 12.2777 7.84987H4.27766C4.27766 7.87355 4.27362 7.88758 4.26883 7.89887C4.2629 7.91287 4.25223 7.93005 4.23562 7.94666C4.21901 7.96327 4.20183 7.97394 4.18783 7.97987C4.17654 7.98465 4.16251 7.9887 4.13883 7.9887V15.9887ZM12.2777 7.84987C12.2777 5.31713 10.2245 3.26393 7.69172 3.26393V11.2639C5.80617 11.2639 4.27766 9.73541 4.27766 7.84987H12.2777ZM7.69172 3.26393H7.05418V11.2639H7.69172V3.26393ZM10.7507 5.7357L8.71159 0.803321L1.31848 3.85977L3.35762 8.79216L10.7507 5.7357ZM5.01504 6.33155H8.3534V-1.66845H5.01504V6.33155ZM4.58995 3.68671C5.38229 5.88714 7.49024 7.47987 9.98559 7.47987V-0.520132C10.9795 -0.520132 11.8061 0.113537 12.1168 0.97639L4.58995 3.68671ZM9.98559 7.47987C12.4809 7.47987 14.5889 5.88709 15.3812 3.68671L7.85429 0.97639C8.16497 0.113587 8.99163 -0.520132 9.98559 -0.520132V7.47987ZM11.6177 6.33155H14.985V-1.66845H11.6177V6.33155ZM11.2884 0.803322L9.2493 5.7357L16.6424 8.79216L18.6816 3.85977L11.2884 0.803322ZM12.9459 3.26393H12.3083V11.2639H12.9459V3.26393ZM12.3083 3.26393C9.77559 3.26393 7.72238 5.31713 7.72238 7.84987H15.7224C15.7224 9.73541 14.1939 11.2639 12.3083 11.2639V3.26393ZM7.72238 7.84987C7.72238 12.3412 11.3699 15.9887 15.8612 15.9887V7.9887C15.8375 7.9887 15.8235 7.98465 15.8122 7.97987C15.7982 7.97394 15.781 7.96327 15.7644 7.94666C15.7478 7.93005 15.7371 7.91287 15.7312 7.89887C15.7264 7.88758 15.7224 7.87355 15.7224 7.84987H7.72238ZM15.8612 15.9887C20.3525 15.9887 24 12.3411 24 7.84987H16C16 7.87357 15.996 7.8876 15.9912 7.89889C15.9852 7.9129 15.9746 7.93007 15.958 7.94668C15.9414 7.96329 15.9242 7.97395 15.9102 7.97988C15.8989 7.98465 15.8849 7.9887 15.8612 7.9887V15.9887ZM24 7.84987C24 5.31713 21.9468 3.26393 19.4141 3.26393V11.2639C17.5285 11.2639 16 9.73541 16 7.84987H24ZM4.13883 6.81682C4.64856 6.81682 5.05659 7.17543 5.15147 7.64728L-2.69155 9.22433C-2.0512 12.4089 0.758084 14.8168 4.13883 14.8168V6.81682ZM1.22996 12.4358H7.0477V4.43581H1.22996V12.4358ZM3.12619 7.64728C3.22107 7.17543 3.6291 6.81682 4.13883 6.81682V14.8168C7.51957 14.8168 10.3289 12.4089 10.9692 9.22433L3.12619 7.64728ZM5.78613 3.26393H2.49152V11.2639H5.78613V3.26393ZM6.18807 8.79218L7.83538 4.80764L0.44228 1.75115L-1.20502 5.73568L6.18807 8.79218ZM0.44228 4.80764L2.08958 8.79218L9.48268 5.73569L7.83538 1.75115L0.44228 4.80764ZM9.98555 -1.69201C11.8846 -1.69201 13.4232 -0.153414 13.4232 1.74561H5.42316C5.42316 4.26487 7.46629 6.30799 9.98555 6.30799V-1.69201ZM13.4232 1.74561C13.4232 3.64463 11.8846 5.18323 9.98555 5.18323V-2.81677C7.46629 -2.81677 5.42316 -0.773643 5.42316 1.74561H13.4232ZM9.98555 5.18323C8.08667 5.18323 6.54793 3.64481 6.54793 1.74561H14.5479C14.5479 -0.773824 12.5046 -2.81677 9.98555 -2.81677V5.18323ZM6.54793 1.74561C6.54793 -0.153414 8.08653 -1.69201 9.98555 -1.69201V6.30799C12.5048 6.30799 14.5479 4.26487 14.5479 1.74561H6.54793ZM12.1646 4.80764L13.8119 8.79218L21.205 5.73569L19.5577 1.75115L12.1646 4.80764ZM17.5085 3.26393H14.2139V11.2639H17.5085V3.26393ZM17.9104 8.79218L19.5577 4.80764L12.1646 1.75115L10.5173 5.73569L17.9104 8.79218ZM15.8612 6.81682C16.3709 6.81682 16.7789 7.17543 16.8738 7.64728L9.0308 9.22433C9.67114 12.4089 12.4804 14.8168 15.8612 14.8168V6.81682ZM12.9523 12.4358H18.77V4.43581H12.9523V12.4358ZM14.8485 7.64728C14.9434 7.1754 15.3514 6.81682 15.8612 6.81682V14.8168C19.2418 14.8168 22.0512 12.4089 22.6915 9.22433L14.8485 7.64728Z" fill="#282739" mask="url(#path-1-inside-1_1_15995)"/>
</svg>
