<svg width="18" height="16" viewBox="0 0 18 16" fill="none" xmlns="http://www.w3.org/2000/svg">
<path d="M8.47256 3.5644V0.236053C6.43975 0.352737 4.53344 1.14266 3.01184 2.49874L5.36506 4.85196C6.25065 4.11474 7.32597 3.66917 8.47256 3.5644Z" fill="#5D6C7B"/>
<path d="M4.61919 5.59759L2.266 3.24442C0.908759 4.76559 0.117849 6.67203 0.000427246 8.70533H3.32892C3.43438 7.5585 3.88087 6.48311 4.61919 5.59759Z" fill="#5D6C7B"/>
<path d="M14.671 8.70533H17.9995C17.8821 6.67203 17.0912 4.76559 15.7339 3.24442L13.3807 5.59759C14.1191 6.48307 14.5655 7.5585 14.671 8.70533Z" fill="#5D6C7B"/>
<path d="M14.6704 9.76004C14.4959 11.676 13.4442 12.845 13.0266 13.2625C12.8203 13.4688 12.8203 13.8033 13.0266 14.0096L14.6267 15.6097C14.7298 15.7128 14.865 15.7644 15.0002 15.7644C15.1354 15.7644 15.2705 15.7128 15.3737 15.6097C16.9531 14.0305 17.874 11.9698 18 9.76004H14.6704Z" fill="#5D6C7B"/>
<path d="M3.27189 12.7858C3.41919 12.5544 3.64215 12.2058 3.90962 11.7933C3.63544 11.2499 3.40358 10.5724 3.32965 9.76004H0C0.126035 11.9698 1.04695 14.0305 2.62628 15.6097C2.72943 15.7129 2.8646 15.7644 2.99978 15.7644C3.13495 15.7644 3.27016 15.7128 3.37331 15.6097L3.92119 15.0618C3.76249 14.9854 3.61607 14.8821 3.48785 14.754C2.95952 14.2256 2.87068 13.4163 3.27189 12.7858Z" fill="#5D6C7B"/>
<path d="M9.52734 0.236053V3.5644C10.6739 3.66917 11.7493 4.1147 12.6348 4.85196L14.9881 2.49874C13.4665 1.14263 11.5601 0.352737 9.52734 0.236053Z" fill="#5D6C7B"/>
<path d="M7.82841 8.06992C7.01222 8.8861 4.45108 12.8972 4.16175 13.352C4.02903 13.5605 4.05899 13.8332 4.23375 14.008C4.40851 14.1827 4.68122 14.2127 4.88976 14.08C5.34444 13.7906 9.35564 11.2295 10.1718 10.4133C10.8179 9.76726 10.8179 8.71602 10.1718 8.06995C9.52576 7.42389 8.47448 7.42385 7.82841 8.06992Z" fill="#5D6C7B"/>
</svg>
