<svg width="16" height="18" viewBox="0 0 16 18" fill="none" xmlns="http://www.w3.org/2000/svg">
<path d="M13.4526 5.35819L14.5303 4.28044L13.4698 3.21956L12.3169 4.3725C11.2636 3.62609 10.0346 3.16607 8.75007 3.0375V1.5H10.2501V0H5.75007V1.5H7.25007V3.0375C5.96557 3.16607 4.7365 3.62609 3.68325 4.3725L2.53031 3.21956L1.46982 4.28044L2.54757 5.35819C1.54155 6.42334 0.869546 7.75982 0.614539 9.20259C0.359533 10.6454 0.532693 12.1312 1.11264 13.4767C1.69258 14.8222 2.6539 15.9683 3.8779 16.7736C5.10189 17.5788 6.53493 18.008 8.00007 18.008C9.4652 18.008 10.8982 17.5788 12.1222 16.7736C13.3462 15.9683 14.3076 14.8222 14.8875 13.4767C15.4674 12.1312 15.6406 10.6454 15.3856 9.20259C15.1306 7.75982 14.4586 6.42334 13.4526 5.35819ZM8.00007 16.5C6.81338 16.5 5.65334 16.1481 4.66664 15.4888C3.67995 14.8295 2.91091 13.8925 2.45679 12.7961C2.00266 11.6997 1.88384 10.4933 2.11535 9.32946C2.34686 8.16557 2.91831 7.09647 3.75742 6.25736C4.59654 5.41824 5.66564 4.8468 6.82952 4.61529C7.99341 4.38378 9.19981 4.5026 10.2962 4.95672C11.3925 5.41085 12.3296 6.17988 12.9889 7.16658C13.6482 8.15327 14.0001 9.31331 14.0001 10.5C13.9983 12.0908 13.3656 13.6158 12.2407 14.7407C11.1159 15.8655 9.59082 16.4982 8.00007 16.5Z" fill="#5D6C7B"/>
<path d="M8 6.00015V10.5002H3.5C3.5 11.3902 3.76392 12.2602 4.25839 13.0002C4.75285 13.7402 5.45566 14.317 6.27792 14.6576C7.10019 14.9982 8.00499 15.0873 8.87791 14.9137C9.75082 14.7401 10.5526 14.3115 11.182 13.6821C11.8113 13.0528 12.2399 12.251 12.4135 11.3781C12.5872 10.5051 12.4981 9.60034 12.1575 8.77808C11.8169 7.95581 11.2401 7.25301 10.5001 6.75854C9.76005 6.26407 8.89002 6.00015 8 6.00015Z" fill="#5D6C7B"/>
</svg>
